<svg xmlns="http://www.w3.org/2000/svg" fill="none" viewBox="0 0 64 64" id="Email-Logo--Streamline-Logos-Block" height="64" width="64">
  <desc>
    Email Logo Streamline Icon: https://streamlinehq.com
  </desc>
  <path fill="#333333" fill-rule="evenodd" d="M13.333333333333332 2.6666666666666665a10.666666666666666 10.666666666666666 0 0 0 -10.666666666666666 10.666666666666666v37.33333333333333a10.666666666666666 10.666666666666666 0 0 0 10.666666666666666 10.666666666666666h37.33333333333333a10.666666666666666 10.666666666666666 0 0 0 10.666666666666666 -10.666666666666666V13.333333333333332a10.666666666666666 10.666666666666666 0 0 0 -10.666666666666666 -10.666666666666666H13.333333333333332Zm16.173333333333332 25.506666666666664 -15.047999999999998 -10.719999999999999h-1.9733333333333332a1.8186666666666667 1.8186666666666667 0 0 0 -1.7066666666666666 1.1866666666666665l19.887999999999998 14.52 19.887999999999998 -14.52a1.8186666666666667 1.8186666666666667 0 0 0 -1.7066666666666666 -1.1866666666666665h-1.9733333333333332l-15.047999999999998 10.719999999999999 -1.16 0.8266666666666667 -1.16 -0.8266666666666667Zm10.474666666666666 -10.719999999999999H21.351999999999997L30.666666666666664 24.087999999999997l9.314666666666666 -6.634666666666666ZM10.666666666666666 23.512v21.216c0 1.0026666666666666 0.8133333333333332 1.816 1.8186666666666667 1.816h2.5439999999999996v-19.848L10.666666666666666 23.512Zm40 0 -4.362666666666666 3.1839999999999997v19.850666666666665h2.5439999999999996a1.8186666666666667 1.8186666666666667 0 0 0 1.8186666666666667 -1.8186666666666667V23.512Zm-8.362666666666666 6.1066666666666665 -10.458666666666666 7.634666666666666 -1.1786666666666665 0.8586666666666667 -1.1786666666666665 -0.8586666666666667 -10.458666666666666 -7.634666666666666v16.927999999999997h23.274666666666665v-16.927999999999997Z" clip-rule="evenodd" stroke-width="2.6667"></path>
</svg>