<svg xmlns="http://www.w3.org/2000/svg" fill="none" viewBox="0 0 64 64" id="Github-Logo-2--Streamline-Logos-Block" height="64" width="64">
  <desc>
    Github Logo 2 Streamline Icon: https://streamlinehq.com
  </desc>
  <path fill="#333333" fill-rule="evenodd" d="M13.333333333333332 2.6666666666666665a10.666666666666666 10.666666666666666 0 0 0 -10.666666666666666 10.666666666666666v37.33333333333333a10.666666666666666 10.666666666666666 0 0 0 10.666666666666666 10.666666666666666h37.33333333333333a10.666666666666666 10.666666666666666 0 0 0 10.666666666666666 -10.666666666666666V13.333333333333332a10.666666666666666 10.666666666666666 0 0 0 -10.666666666666666 -10.666666666666666H13.333333333333332Zm4.84 13.626666666666667a21.306666666666665 21.306666666666665 0 0 1 13.818666666666667 -5.074666666666666 21.306666666666665 21.306666666666665 0 0 1 6.749333333333333 41.52533333333333c-1.08 0.2053333333333333 -1.4266666666666667 -0.424 -1.4266666666666667 -0.992v-5.898666666666667a5.048 5.048 0 0 0 -1.456 -3.928c4.746666666666666 -0.5253333333333333 9.728 -2.3226666666666667 9.728 -10.512a8.229333333333333 8.229333333333333 0 0 0 -2.1919999999999997 -5.722666666666666 7.653333333333333 7.653333333333333 0 0 0 -0.21333333333333332 -5.637333333333332s-1.776 -0.5706666666666667 -5.850666666666666 2.1866666666666665a20.162666666666667 20.162666666666667 0 0 0 -10.671999999999999 0C22.592 19.482666666666667 20.799999999999997 20.05333333333333 20.799999999999997 20.05333333333333a7.645333333333333 7.645333333333333 0 0 0 -0.208 5.637333333333332 8.239999999999998 8.239999999999998 0 0 0 -2.1946666666666665 5.717333333333333c0 8.168 4.976 9.994666666666667 9.706666666666667 10.533333333333333a4.546666666666667 4.546666666666667 0 0 0 -1.3546666666666667 2.84 4.538666666666666 4.538666666666666 0 0 1 -6.2 -1.7706666666666666 4.474666666666666 4.474666666666666 0 0 0 -3.264 -2.1946666666666665s-2.08 -0.026666666666666665 -0.144 1.2986666666666666c1.136 0.7226666666666667 1.9733333333333332 1.8293333333333335 2.365333333333333 3.1146666666666665 0 0 1.224 4.093333333333333 7.151999999999999 2.808 0.008 1.3439999999999999 0.005333333333333333 2.477333333333333 0 3.173333333333333l0 0.5333333333333333c0 0.5599999999999999 -0.33599999999999997 1.1866666666666665 -1.4 1A21.306666666666665 21.306666666666665 0 0 1 18.173333333333332 16.293333333333333Z" clip-rule="evenodd" stroke-width="2.6667"></path>
</svg>