<svg xmlns="http://www.w3.org/2000/svg" fill="none" viewBox="0 0 64 64" id="Instagram-Logo-1--Streamline-Logos-Block" height="64" width="64">
  <desc>
    Instagram Logo 1 Streamline Icon: https://streamlinehq.com
  </desc>
  <path fill="#333333" fill-rule="evenodd" d="M13.333333333333332 2.6666666666666665a10.666666666666666 10.666666666666666 0 0 0 -10.666666666666666 10.666666666666666v37.33333333333333a10.666666666666666 10.666666666666666 0 0 0 10.666666666666666 10.666666666666666h37.33333333333333a10.666666666666666 10.666666666666666 0 0 0 10.666666666666666 -10.666666666666666V13.333333333333332a10.666666666666666 10.666666666666666 0 0 0 -10.666666666666666 -10.666666666666666H13.333333333333332Zm5.514666666666667 10.666666666666666h2.5466666666666664v11.453333333333333h-2.5466666666666664V13.333333333333332ZM13.333333333333332 18.426666666666666a5.093333333333333 5.093333333333333 0 0 1 2.970666666666667 -4.632v10.991999999999999H13.333333333333332V18.426666666666666Zm0 8.906666666666666v18.24A5.093333333333333 5.093333333333333 0 0 0 18.426666666666666 50.666666666666664h27.146666666666665A5.093333333333333 5.093333333333333 0 0 0 50.666666666666664 45.57333333333333v-18.24h-9.111999999999998a11.029333333333334 11.029333333333334 0 1 1 -19.109333333333332 0H13.333333333333332Zm37.33333333333333 -8.906666666666666v6.359999999999999h-11.136a11.04 11.04 0 0 0 -10.498666666666665 -2.5653333333333332V13.333333333333332h16.543999999999997A5.093333333333333 5.093333333333333 0 0 1 50.666666666666664 18.426666666666666Zm-9.333333333333332 -1.6986666666666665a0.848 0.848 0 0 0 -0.848 0.848v3.3946666666666663c0 0.4666666666666666 0.3786666666666666 0.848 0.848 0.848h3.3946666666666663a0.848 0.848 0 0 0 0.848 -0.848V17.57333333333333a0.848 0.848 0 0 0 -0.848 -0.848H41.33333333333333ZM26.485333333333333 13.333333333333332h-2.5466666666666664v11.453333333333333h0.5333333333333333c0.608 -0.5706666666666667 1.2853333333333332 -1.072 2.013333333333333 -1.4933333333333334V13.333333333333332ZM32 25.21333333333333a7.637333333333332 7.637333333333332 0 1 0 0 15.272 7.637333333333332 7.637333333333332 0 0 0 0 -15.272Z" clip-rule="evenodd" stroke-width="2.6667"></path>
</svg>