<svg xmlns="http://www.w3.org/2000/svg" fill="none" viewBox="0 0 64 64" id="Linkedin-Logo--Streamline-Logos-Block" height="64" width="64">
  <desc>
    Linkedin Logo Streamline Icon: https://streamlinehq.com
  </desc>
  <path fill="#333333" fill-rule="evenodd" d="M13.333333333333332 2.6666666666666665a10.666666666666666 10.666666666666666 0 0 0 -10.666666666666666 10.666666666666666v37.33333333333333a10.666666666666666 10.666666666666666 0 0 0 10.666666666666666 10.666666666666666h37.33333333333333a10.666666666666666 10.666666666666666 0 0 0 10.666666666666666 -10.666666666666666V13.333333333333332a10.666666666666666 10.666666666666666 0 0 0 -10.666666666666666 -10.666666666666666H13.333333333333332Zm3.2133333333333334 18.426666666666666a4.546666666666667 4.546666666666667 0 1 0 0 -9.093333333333334 4.546666666666667 4.546666666666667 0 0 0 0 9.093333333333334ZM21.090666666666664 52V24.727999999999998H12V52h9.093333333333334Zm11.818666666666667 -27.272H24.727999999999998V52h8.181333333333333v-16.453333333333333c1.0533333333333332 -1.712 2.872 -3.546666666666667 5.453333333333333 -3.546666666666667 3.6373333333333333 0 4.546666666666667 3.6373333333333333 4.546666666666667 5.4559999999999995V52H52v-14.543999999999999c0 -4.874666666666666 -2.1253333333333333 -12.727999999999998 -10 -12.727999999999998 -5.007999999999999 0 -7.786666666666666 1.8266666666666667 -9.093333333333334 3.5386666666666664V24.727999999999998Z" clip-rule="evenodd" stroke-width="2.6667"></path>
</svg>